<?xml version="1.0" encoding="UTF-8"?>
<!DOCTYPE svg PUBLIC "-//W3C//DTD SVG 1.1//EN" "http://www.w3.org/Graphics/SVG/1.1/DTD/svg11.dtd">
<svg xmlns="http://www.w3.org/2000/svg" version="1.1" width="1200px" height="236px" style="shape-rendering:geometricPrecision; text-rendering:geometricPrecision; image-rendering:optimizeQuality; fill-rule:evenodd; clip-rule:evenodd" xmlns:xlink="http://www.w3.org/1999/xlink">
<g><path style="opacity:0.931" fill="#003782" d="M 78.5,5.5 C 98.4733,3.13051 109.807,11.7972 112.5,31.5C 111.235,47.9313 102.402,56.9313 86,58.5C 69.0469,57.38 59.8803,48.38 58.5,31.5C 59.3582,18.1993 66.0249,9.53264 78.5,5.5 Z"/></g>
<g><path style="opacity:0.932" fill="#003782" d="M 856.5,14.5 C 867.172,14.3335 877.839,14.5002 888.5,15C 891.529,15.539 894.529,16.2057 897.5,17C 898.478,23.4102 898.811,29.9102 898.5,36.5C 863.206,22.7901 847.539,34.7901 851.5,72.5C 863.167,72.5 874.833,72.5 886.5,72.5C 886.5,77.5 886.5,82.5 886.5,87.5C 874.833,87.5 863.167,87.5 851.5,87.5C 851.5,124.5 851.5,161.5 851.5,198.5C 842.167,198.5 832.833,198.5 823.5,198.5C 823.5,161.5 823.5,124.5 823.5,87.5C 816.167,87.5 808.833,87.5 801.5,87.5C 801.5,82.5 801.5,77.5 801.5,72.5C 808.833,72.5 816.167,72.5 823.5,72.5C 823.005,61.3891 823.838,50.3891 826,39.5C 831.516,25.4835 841.682,17.1501 856.5,14.5 Z"/></g>
<g><path style="opacity:0.922" fill="#003782" d="M 915.5,17.5 C 925.5,17.5 935.5,17.5 945.5,17.5C 945.5,26.5 945.5,35.5 945.5,44.5C 935.5,44.5 925.5,44.5 915.5,44.5C 915.5,35.5 915.5,26.5 915.5,17.5 Z"/></g>
<g><path style="opacity:0.993" fill="#ed7c0b" d="M 150.5,-0.5 C 156.833,-0.5 163.167,-0.5 169.5,-0.5C 177.437,3.09975 182.437,9.09975 184.5,17.5C 185.779,27.4013 187.279,37.4013 189,47.5C 191.096,51.1346 194.263,53.1346 198.5,53.5C 197.841,56.4082 197.007,56.7416 196,54.5C 195,55.8333 194,55.8333 193,54.5C 192,55.8333 191,57.1667 190,58.5C 188.708,57.2089 187.542,57.2089 186.5,58.5C 184.422,55.9493 181.756,54.116 178.5,53C 169.44,52.882 160.44,52.2154 151.5,51C 134.808,43.6315 129.308,31.1315 135,13.5C 138.492,6.83442 143.659,2.16775 150.5,-0.5 Z"/></g>
<g><path style="opacity:0.973" fill="#ed7c0b" d="M 184.5,17.5 C 181.993,20.288 180.993,19.9547 181.5,16.5C 180.975,15.8076 180.308,15.3076 179.5,15C 179.799,13.6796 179.966,12.1796 180,10.5C 180.814,12.2817 181.981,13.7817 183.5,15C 182.117,16.4609 182.451,17.2942 184.5,17.5 Z"/></g>
<g><path style="opacity:1" fill="#ed7c0b" d="M 198.5,53.5 C 207.384,54.9956 216.384,55.8289 225.5,56C 241.103,63.5664 246.27,75.733 241,92.5C 238.588,96.9159 235.422,100.749 231.5,104C 227.095,106.372 222.428,107.872 217.5,108.5C 216.132,107.694 214.799,106.694 213.5,105.5C 211.902,106.485 210.235,106.651 208.5,106C 209.552,104.881 210.719,104.381 212,104.5C 212.325,102.447 211.991,100.447 211,98.5C 210.667,99.1667 210.333,99.8333 210,100.5C 208.907,98.6508 207.574,96.9842 206,95.5C 204.221,98.2764 203.221,97.9431 203,94.5C 202.751,95.624 202.251,96.624 201.5,97.5C 199.26,97.0692 197.26,97.0692 195.5,97.5C 193.926,97.0629 192.759,96.0629 192,94.5C 189.968,89.7163 189.134,84.7163 189.5,79.5C 191.77,78.8752 192.104,79.8752 190.5,82.5C 191.274,83.7112 192.107,83.7112 193,82.5C 193.805,84.9011 194.638,84.7344 195.5,82C 192.961,80.9008 192.295,79.2342 193.5,77C 195.163,76.7351 196.663,77.2351 198,78.5C 198.333,77.8333 198.667,77.1667 199,76.5C 201.139,77.6247 202.306,78.9581 202.5,80.5C 204.046,79.316 205.713,78.316 207.5,77.5C 206.153,73.8904 206.82,73.5571 209.5,76.5C 210.5,76.1667 211.167,75.5 211.5,74.5C 209.807,73.7717 208.307,72.7717 207,71.5C 206,74.1667 205,74.1667 204,71.5C 203.667,71.8333 203.333,72.1667 203,72.5C 202.581,71.3279 201.915,70.3279 201,69.5C 200.632,70.91 199.799,71.91 198.5,72.5C 197.169,71.4078 196.336,70.0745 196,68.5C 194.513,69.2529 194.346,70.0862 195.5,71C 194.167,72 192.833,73 191.5,74C 192.5,74.3333 193.5,74.6667 194.5,75C 192.701,76.0363 191.034,76.2029 189.5,75.5C 188.905,69.7304 187.905,64.0637 186.5,58.5C 187.542,57.2089 188.708,57.2089 190,58.5C 191,57.1667 192,55.8333 193,54.5C 194,55.8333 195,55.8333 196,54.5C 197.007,56.7416 197.841,56.4082 198.5,53.5 Z"/></g>
<g><path style="opacity:0.933" fill="#f6b373" d="M 31.5,57.5 C 53.32,57.1526 63.82,67.8193 63,89.5C 57.75,105.88 46.5833,112.713 29.5,110C 10.9936,102.469 5.49357,89.3021 13,70.5C 17.6272,63.7865 23.7939,59.4531 31.5,57.5 Z"/></g>
<g><path style="opacity:0.934" fill="#5964a1" d="M 140.5,68.5 C 156.37,67.0044 166.87,73.6711 172,88.5C 172.761,97.1594 173.428,105.826 174,114.5C 175.061,117.562 176.894,120.062 179.5,122C 191.178,123.63 202.845,125.296 214.5,127C 228.907,136.106 232.741,148.606 226,164.5C 218.826,175.458 208.659,179.625 195.5,177C 187.616,175.112 181.783,170.612 178,163.5C 176.043,154.291 175.043,144.957 175,135.5C 174.258,130.849 172.092,127.016 168.5,124C 158.927,122.143 149.261,121.143 139.5,121C 129.835,118.667 123.335,112.834 120,103.5C 116.963,90.2592 120.797,79.7592 131.5,72C 134.662,70.9725 137.662,69.8059 140.5,68.5 Z"/></g>
<g><path style="opacity:1" fill="#ed7c0b" d="M 189.5,79.5 C 189.5,78.1667 189.5,76.8333 189.5,75.5C 191.034,76.2029 192.701,76.0363 194.5,75C 193.5,74.6667 192.5,74.3333 191.5,74C 192.833,73 194.167,72 195.5,71C 194.346,70.0862 194.513,69.2529 196,68.5C 196.336,70.0745 197.169,71.4078 198.5,72.5C 199.799,71.91 200.632,70.91 201,69.5C 201.915,70.3279 202.581,71.3279 203,72.5C 203.333,72.1667 203.667,71.8333 204,71.5C 205,74.1667 206,74.1667 207,71.5C 208.307,72.7717 209.807,73.7717 211.5,74.5C 211.167,75.5 210.5,76.1667 209.5,76.5C 206.82,73.5571 206.153,73.8904 207.5,77.5C 205.713,78.316 204.046,79.316 202.5,80.5C 202.306,78.9581 201.139,77.6247 199,76.5C 198.667,77.1667 198.333,77.8333 198,78.5C 196.663,77.2351 195.163,76.7351 193.5,77C 192.295,79.2342 192.961,80.9008 195.5,82C 194.638,84.7344 193.805,84.9011 193,82.5C 192.107,83.7112 191.274,83.7112 190.5,82.5C 192.104,79.8752 191.77,78.8752 189.5,79.5 Z"/></g>
<g><path style="opacity:1" fill="#ed7c0b" d="M 220.5,61.5 C 221.653,62.3132 221.653,63.3132 220.5,64.5C 222.138,65.7046 222.471,67.0379 221.5,68.5C 222.5,69.8333 223.5,69.8333 224.5,68.5C 223.089,66.9825 223.256,65.6492 225,64.5C 225.919,66.3671 226.419,68.3671 226.5,70.5C 227.768,69.5721 229.101,69.4054 230.5,70C 229.333,70.5 228.5,71.3333 228,72.5C 226.542,71.2532 225.042,71.2532 223.5,72.5C 223.167,71.8333 222.833,71.1667 222.5,70.5C 221.808,71.0253 221.308,71.6919 221,72.5C 220.975,70.1024 220.141,67.7691 218.5,65.5C 217.269,66.6507 217.269,67.8173 218.5,69C 217.932,70.6036 216.932,71.2703 215.5,71C 216.065,69.3264 216.232,67.4931 216,65.5C 217.196,63.714 218.696,62.3807 220.5,61.5 Z"/></g>
<g><path style="opacity:0.913" fill="#003782" d="M 345.5,70.5 C 355.839,70.3335 366.172,70.5002 376.5,71C 391.598,74.0942 401.764,82.9275 407,97.5C 408.86,105.739 410.026,114.072 410.5,122.5C 385.5,122.5 360.5,122.5 335.5,122.5C 335.484,142.796 342.15,160.463 355.5,175.5C 365.804,183.431 377.47,186.598 390.5,185C 396.235,183.65 401.902,182.15 407.5,180.5C 407.5,185.167 407.5,189.833 407.5,194.5C 384.129,203.867 360.795,203.701 337.5,194C 322.169,184.309 312.669,170.475 309,152.5C 307.032,137.832 307.032,123.165 309,108.5C 313.598,88.4046 325.765,75.7379 345.5,70.5 Z M 354.5,82.5 C 372.446,81.777 381.78,90.4436 382.5,108.5C 367.167,108.5 351.833,108.5 336.5,108.5C 337.528,96.1762 343.528,87.5095 354.5,82.5 Z"/></g>
<g><path style="opacity:0.926" fill="#003782" d="M 647.5,70.5 C 650.833,70.5 654.167,70.5 657.5,70.5C 657.5,79.8333 657.5,89.1667 657.5,98.5C 643.81,98.1138 632.31,102.78 623,112.5C 619.203,118.887 617.203,125.887 617,133.5C 616.5,155.164 616.333,176.831 616.5,198.5C 607.167,198.5 597.833,198.5 588.5,198.5C 588.5,156.5 588.5,114.5 588.5,72.5C 597.833,72.5 607.167,72.5 616.5,72.5C 616.334,82.1724 616.5,91.8391 617,101.5C 622.704,86.6301 632.871,76.2968 647.5,70.5 Z"/></g>
<g><path style="opacity:0.924" fill="#003782" d="M 712.5,70.5 C 760.696,65.3624 784.363,87.029 783.5,135.5C 784.801,154.082 779.968,170.749 769,185.5C 757.706,196.942 743.873,202.276 727.5,201.5C 700.331,201.86 682.831,189.193 675,163.5C 669.434,140.678 670.768,118.344 679,96.5C 686.253,82.7428 697.419,74.0761 712.5,70.5 Z M 722.5,82.5 C 735.977,81.6556 744.81,87.6556 749,100.5C 754.973,123.508 754.973,146.508 749,169.5C 746.058,180.447 739.058,186.781 728,188.5C 724.456,187.875 720.956,187.041 717.5,186C 708.035,176.968 703.201,165.801 703,152.5C 701.671,135.346 702.671,118.346 706,101.5C 708.9,92.7756 714.4,86.4422 722.5,82.5 Z"/></g>
<g><path style="opacity:0.919" fill="#003782" d="M 1044.5,70.5 C 1070.08,65.6891 1084.91,76.0225 1089,101.5C 1089.5,133.832 1089.67,166.165 1089.5,198.5C 1079.83,198.5 1070.17,198.5 1060.5,198.5C 1060.67,168.498 1060.5,138.498 1060,108.5C 1057.96,92.3952 1049.46,87.5619 1034.5,94C 1020.81,106.745 1013.98,122.578 1014,141.5C 1013.5,160.497 1013.33,179.497 1013.5,198.5C 1004.17,198.5 994.833,198.5 985.5,198.5C 985.5,156.5 985.5,114.5 985.5,72.5C 994.833,72.5 1004.17,72.5 1013.5,72.5C 1013.33,81.5062 1013.5,90.5062 1014,99.5C 1020.19,85.4705 1030.36,75.8039 1044.5,70.5 Z"/></g>
<g><path style="opacity:0.918" fill="#003782" d="M 1199.5,151.5 C 1199.5,159.5 1199.5,167.5 1199.5,175.5C 1194.93,186.57 1186.93,194.07 1175.5,198C 1156.38,203.074 1137.54,202.24 1119,195.5C 1118.17,186.814 1118.33,178.147 1119.5,169.5C 1131.82,179.152 1145.82,183.319 1161.5,182C 1176.26,174.304 1177.26,164.971 1164.5,154C 1151.95,146.987 1139.95,139.153 1128.5,130.5C 1115.33,115.794 1114.16,100.128 1125,83.5C 1131.06,76.7848 1138.56,72.6182 1147.5,71C 1157.83,70.3333 1168.17,70.3333 1178.5,71C 1182.81,72.2723 1187.15,73.4389 1191.5,74.5C 1192.5,82.4723 1192.83,90.4723 1192.5,98.5C 1186.85,96.3735 1181.52,93.5402 1176.5,90C 1171.3,88.1999 1165.97,87.0332 1160.5,86.5C 1153.26,86.533 1147.76,89.533 1144,95.5C 1143.21,98.634 1143.54,101.634 1145,104.5C 1152.95,113.074 1162.45,119.574 1173.5,124C 1181.65,129.162 1188.82,135.328 1195,142.5C 1196.04,145.823 1197.54,148.823 1199.5,151.5 Z"/></g>
<g><path style="opacity:0.917" fill="#003782" d="M 442.5,72.5 C 452.167,72.5 461.833,72.5 471.5,72.5C 471.333,103.835 471.5,135.168 472,166.5C 477.413,180.445 486.58,183.278 499.5,175C 507.716,166.408 513.216,156.241 516,144.5C 516.448,139.47 517.114,134.47 518,129.5C 518.5,110.503 518.667,91.5029 518.5,72.5C 527.833,72.5 537.167,72.5 546.5,72.5C 546.5,114.5 546.5,156.5 546.5,198.5C 536.833,198.5 527.167,198.5 517.5,198.5C 517.666,189.827 517.5,181.16 517,172.5C 506.539,194.148 489.372,203.315 465.5,200C 451.217,195.025 443.717,184.858 443,169.5C 442.5,137.168 442.333,104.835 442.5,72.5 Z"/></g>
<g><path style="opacity:0.937" fill="#003782" d="M 916.5,72.5 C 925.833,72.5 935.167,72.5 944.5,72.5C 944.5,114.5 944.5,156.5 944.5,198.5C 935.167,198.5 925.833,198.5 916.5,198.5C 916.5,156.5 916.5,114.5 916.5,72.5 Z"/></g>
<g><path style="opacity:0.887" fill="#ed7c0b" d="M 217.5,108.5 C 211.465,108.408 205.799,106.908 200.5,104C 198.258,102.23 196.592,100.063 195.5,97.5C 197.26,97.0692 199.26,97.0692 201.5,97.5C 202.251,96.624 202.751,95.624 203,94.5C 203.221,97.9431 204.221,98.2764 206,95.5C 207.574,96.9842 208.907,98.6508 210,100.5C 210.333,99.8333 210.667,99.1667 211,98.5C 211.991,100.447 212.325,102.447 212,104.5C 210.719,104.381 209.552,104.881 208.5,106C 210.235,106.651 211.902,106.485 213.5,105.5C 214.799,106.694 216.132,107.694 217.5,108.5 Z"/></g>
<g><path style="opacity:0.928" fill="#9fa0c7" d="M 88.5,115.5 C 109.131,112.464 121.131,121.131 124.5,141.5C 121.453,161.054 110.12,169.887 90.5,168C 70.3181,159.463 65.1514,145.296 75,125.5C 78.7667,121.048 83.2667,117.714 88.5,115.5 Z"/></g>
<g><path style="opacity:0.935" fill="#003782" d="M 89.5,235.5 C 84.5,235.5 79.5,235.5 74.5,235.5C 66.7457,232.925 60.9124,227.925 57,220.5C 55.9004,210.866 54.9004,201.2 54,191.5C 52.7373,185.115 48.904,181.281 42.5,180C 34.5,179.667 26.5,179.333 18.5,179C 9.77557,176.1 3.44223,170.6 -0.5,162.5C -0.5,155.833 -0.5,149.167 -0.5,142.5C 1.79383,138.76 4.4605,135.26 7.5,132C 18.6331,125.051 29.9664,124.718 41.5,131C 47.1475,135.127 50.6475,140.627 52,147.5C 52.3333,155.167 52.6667,162.833 53,170.5C 54.9954,177.765 59.8287,181.598 67.5,182C 86.5043,177.855 100.004,184.355 108,201.5C 110.734,217.87 104.568,229.203 89.5,235.5 Z"/></g>
<g><path style="opacity:1" fill="#9fa0c7" d="M 97.5,154.5 C 98.4734,154.987 99.4734,155.487 100.5,156C 99.1667,156.667 99.1667,157.333 100.5,158C 98.0989,158.805 98.2656,159.638 101,160.5C 101.688,161.332 101.521,161.998 100.5,162.5C 98.3159,163.108 96.3159,162.441 94.5,160.5C 95.1286,158.259 96.1286,156.259 97.5,154.5 Z"/></g>
<g><path style="opacity:0.949" fill="#ed7c0b" d="M 144.5,177.5 C 156.019,175.655 165.186,179.322 172,188.5C 173.009,190.025 173.509,191.692 173.5,193.5C 171.816,196.443 170.982,199.443 171,202.5C 168.266,201.638 168.099,200.805 170.5,200C 168.833,199.667 167.167,199.333 165.5,199C 167.883,198.935 168.55,198.102 167.5,196.5C 168.5,194.833 169.833,193.5 171.5,192.5C 169.944,190.299 168.777,190.299 168,192.5C 166.513,191.747 166.346,190.914 167.5,190C 166.892,189.13 166.059,188.63 165,188.5C 163.341,189.98 161.508,191.314 159.5,192.5C 156.956,191.265 156.956,190.099 159.5,189C 159.335,187.883 159.002,186.716 158.5,185.5C 159.355,184.707 160.189,185.04 161,186.5C 160.689,185.065 160.855,183.732 161.5,182.5C 159.909,181.136 158.242,180.303 156.5,180C 156.833,180.333 157.167,180.667 157.5,181C 156.643,181.689 155.977,182.522 155.5,183.5C 156.544,185.768 156.711,188.101 156,190.5C 155.269,188.101 154.102,185.935 152.5,184C 154.929,183.549 155.096,182.715 153,181.5C 152.085,182.328 151.419,183.328 151,184.5C 149.951,183.483 148.784,183.316 147.5,184C 148.416,184.278 149.082,184.778 149.5,185.5C 148.512,186.795 147.512,188.128 146.5,189.5C 145.715,191.374 145.048,193.374 144.5,195.5C 143.883,195.611 143.383,195.944 143,196.5C 142.801,194.598 141.967,193.098 140.5,192C 140.073,189.872 140.573,187.705 142,185.5C 143.264,185.36 144.431,185.36 145.5,185.5C 144.985,183.154 144.652,180.487 144.5,177.5 Z"/></g>
<g><path style="opacity:1" fill="#ed7c0b" d="M 144.5,177.5 C 144.652,180.487 144.985,183.154 145.5,185.5C 144.431,185.36 143.264,185.36 142,185.5C 140.573,187.705 140.073,189.872 140.5,192C 141.967,193.098 142.801,194.598 143,196.5C 143.383,195.944 143.883,195.611 144.5,195.5C 145.048,193.374 145.715,191.374 146.5,189.5C 149.36,192.087 152.36,194.42 155.5,196.5C 155.78,193.612 154.447,192.112 151.5,192C 151.833,191.667 152.167,191.333 152.5,191C 149.942,189.62 149.942,188.12 152.5,186.5C 151.675,185.614 150.675,185.281 149.5,185.5C 149.082,184.778 148.416,184.278 147.5,184C 148.784,183.316 149.951,183.483 151,184.5C 151.419,183.328 152.085,182.328 153,181.5C 155.096,182.715 154.929,183.549 152.5,184C 154.102,185.935 155.269,188.101 156,190.5C 156.711,188.101 156.544,185.768 155.5,183.5C 155.977,182.522 156.643,181.689 157.5,181C 157.167,180.667 156.833,180.333 156.5,180C 158.242,180.303 159.909,181.136 161.5,182.5C 160.855,183.732 160.689,185.065 161,186.5C 160.189,185.04 159.355,184.707 158.5,185.5C 159.002,186.716 159.335,187.883 159.5,189C 156.956,190.099 156.956,191.265 159.5,192.5C 161.508,191.314 163.341,189.98 165,188.5C 166.059,188.63 166.892,189.13 167.5,190C 166.346,190.914 166.513,191.747 168,192.5C 168.777,190.299 169.944,190.299 171.5,192.5C 169.833,193.5 168.5,194.833 167.5,196.5C 168.55,198.102 167.883,198.935 165.5,199C 167.167,199.333 168.833,199.667 170.5,200C 168.099,200.805 168.266,201.638 171,202.5C 170.982,199.443 171.816,196.443 173.5,193.5C 174.87,195.25 175.87,197.25 176.5,199.5C 175.25,199.577 174.417,200.244 174,201.5C 173.667,201.167 173.333,200.833 173,200.5C 170.941,205.361 169.774,210.194 169.5,215C 167.414,215.627 167.081,215.127 168.5,213.5C 167.277,212.386 165.944,212.219 164.5,213C 165.956,213.423 166.456,214.256 166,215.5C 165.333,214.167 164.667,214.167 164,215.5C 163.667,214.5 163.333,213.5 163,212.5C 160.479,215.315 158.813,214.982 158,211.5C 156.778,213.696 154.944,215.196 152.5,216C 157.046,216.81 157.38,218.143 153.5,220C 154.167,222 155.5,223.333 157.5,224C 153.597,225.692 153.597,227.192 157.5,228.5C 142.274,232.885 131.107,227.885 124,213.5C 120.309,200.164 123.809,189.331 134.5,181C 137.632,179.218 140.965,178.052 144.5,177.5 Z"/></g>
<g><path style="opacity:1" fill="#ed7c0b" d="M 144.5,195.5 C 145.772,194.333 147.106,193.499 148.5,193C 147.167,194 147.167,195 148.5,196C 146.934,196.765 145.601,196.598 144.5,195.5 Z"/></g>
<g><path style="opacity:1" fill="#ed7c0b" d="M 149.5,185.5 C 150.675,185.281 151.675,185.614 152.5,186.5C 149.942,188.12 149.942,189.62 152.5,191C 152.167,191.333 151.833,191.667 151.5,192C 154.447,192.112 155.78,193.612 155.5,196.5C 152.36,194.42 149.36,192.087 146.5,189.5C 147.512,188.128 148.512,186.795 149.5,185.5 Z"/></g>
<g><path style="opacity:1" fill="#ed7c0b" d="M 155.5,196.5 C 156.931,196.119 157.764,195.119 158,193.5C 159.686,196.022 161.019,195.689 162,192.5C 162.667,195.167 163.333,195.167 164,192.5C 164.5,193.667 165.333,194.5 166.5,195C 165.167,195.333 163.833,195.667 162.5,196C 163.167,196.333 163.833,196.667 164.5,197C 164.018,198.008 163.852,199.175 164,200.5C 162.701,200.034 161.201,200.034 159.5,200.5C 159.243,203.932 158.576,207.266 157.5,210.5C 156.325,210.719 155.325,210.386 154.5,209.5C 155.255,207.446 156.589,205.279 158.5,203C 157.576,201.85 157.576,200.85 158.5,200C 157.551,199.383 156.718,199.549 156,200.5C 154.666,199.122 154.499,197.789 155.5,196.5 Z"/></g>
<g><path style="opacity:1" fill="#ed7c0b" d="M 147.5,197.5 C 148.478,197.811 149.145,198.478 149.5,199.5C 148.282,199.109 147.448,199.776 147,201.5C 146.626,200.584 146.126,199.75 145.5,199C 146.416,198.722 147.082,198.222 147.5,197.5 Z"/></g>
<g><path style="opacity:0.953" fill="#ed7c0b" d="M 176.5,199.5 C 177.057,212.041 172.057,221.541 161.5,228C 160.207,228.49 158.873,228.657 157.5,228.5C 153.597,227.192 153.597,225.692 157.5,224C 155.5,223.333 154.167,222 153.5,220C 157.38,218.143 157.046,216.81 152.5,216C 154.944,215.196 156.778,213.696 158,211.5C 158.813,214.982 160.479,215.315 163,212.5C 163.333,213.5 163.667,214.5 164,215.5C 164.667,214.167 165.333,214.167 166,215.5C 166.456,214.256 165.956,213.423 164.5,213C 165.944,212.219 167.277,212.386 168.5,213.5C 167.081,215.127 167.414,215.627 169.5,215C 169.774,210.194 170.941,205.361 173,200.5C 173.333,200.833 173.667,201.167 174,201.5C 174.417,200.244 175.25,199.577 176.5,199.5 Z"/></g>
<g><path style="opacity:1" fill="#ed7c0b" d="M 152.5,223.5 C 153.788,225.035 153.788,226.701 152.5,228.5C 151.494,228.062 151.494,227.396 152.5,226.5C 151.271,225.719 149.938,225.219 148.5,225C 150.058,224.79 151.391,224.29 152.5,223.5 Z"/></g>
</svg>
